# Blender 4.0.2
# www.blender.org
o Cube
v 1.000000 1.000000 -1.000000
v 1.000000 -1.000000 -1.000000
v 1.000000 1.000000 1.000000
v 1.000000 -1.000000 1.000000
v -1.000000 1.000000 -1.000000
v -1.000000 -1.000000 -1.000000
v -1.000000 1.000000 1.000000
v -1.000000 -1.000000 1.000000
v -2.614745 -1.000000 -1.000000
v -2.614745 -1.000000 1.000000
v -2.614745 1.000000 1.000000
v -2.614745 1.000000 -1.000000
v -4.383039 -1.000000 -1.000000
v -4.383039 -1.000000 1.000000
v -4.383039 1.000000 1.000000
v -4.383039 1.000000 -1.000000
v -6.259779 -1.000000 -1.000000
v -6.259779 -1.000000 1.000000
v -6.259779 1.000000 1.000000
v -6.259779 1.000000 -1.000000
v 2.974565 1.000000 -1.000000
v 2.974565 -1.000000 -1.000000
v 2.974565 1.000000 1.000000
v 2.974565 -1.000000 1.000000
v 4.718109 1.000000 -1.000000
v 4.718109 -1.000000 -1.000000
v 4.718109 1.000000 1.000000
v 4.718109 -1.000000 1.000000
vn -0.0000 1.0000 -0.0000
vn -0.0000 -0.0000 1.0000
vn -0.0000 -0.0000 -1.0000
vn -0.0000 -1.0000 -0.0000
vn -1.0000 -0.0000 -0.0000
vn 1.0000 -0.0000 -0.0000
vt 0.625000 0.500000
vt 0.875000 0.500000
vt 0.875000 0.750000
vt 0.625000 0.750000
vt 0.375000 0.750000
vt 0.625000 1.000000
vt 0.375000 1.000000
vt 0.625000 0.250000
vt 0.375000 0.250000
vt 0.125000 0.500000
vt 0.375000 0.500000
vt 0.125000 0.750000
vt 0.375000 0.000000
vt 0.625000 0.000000
s 0
f 1/1/1 5/2/1 7/3/1 3/4/1
f 4/5/2 3/4/2 7/6/2 8/7/2
f 5/8/3 6/9/3 9/9/3 12/8/3
f 6/10/4 2/11/4 4/5/4 8/12/4
f 3/4/2 4/5/2 24/5/2 23/4/2
f 6/9/3 5/8/3 1/1/3 2/11/3
f 12/8/3 9/9/3 13/9/3 16/8/3
f 8/7/2 7/6/2 11/6/2 10/7/2
f 6/10/4 8/12/4 10/12/4 9/10/4
f 7/3/1 5/2/1 12/2/1 11/3/1
f 15/3/1 16/2/1 20/2/1 19/3/1
f 9/10/4 10/12/4 14/12/4 13/10/4
f 11/3/1 12/2/1 16/2/1 15/3/1
f 10/7/2 11/6/2 15/6/2 14/7/2
f 18/13/5 19/14/5 20/8/5 17/9/5
f 14/7/2 15/6/2 19/6/2 18/7/2
f 16/8/3 13/9/3 17/9/3 20/8/3
f 13/10/4 14/12/4 18/12/4 17/10/4
f 21/1/1 23/4/1 27/4/1 25/1/1
f 2/11/3 1/1/3 21/1/3 22/11/3
f 4/5/4 2/11/4 22/11/4 24/5/4
f 1/1/1 3/4/1 23/4/1 21/1/1
f 26/11/6 25/1/6 27/4/6 28/5/6
f 22/11/3 21/1/3 25/1/3 26/11/3
f 24/5/4 22/11/4 26/11/4 28/5/4
f 23/4/2 24/5/2 28/5/2 27/4/2
