# Blender 4.0.2
# www.blender.org
o Cube
v -1.000000 1.000000 -1.000000
v -1.000000 -1.000000 -1.000000
v 1.000000 1.000000 -1.000000
v 1.000000 -1.000000 -1.000000
v -1.000000 1.000000 1.000000
v -1.000000 -1.000000 1.000000
v 1.000000 1.000000 1.000000
v 1.000000 -1.000000 1.000000
v 2.806246 -1.000000 1.000000
v 2.806246 1.000000 1.000000
v 2.806246 1.000000 -1.000000
v 2.806246 -1.000000 -1.000000
v 4.599966 -1.000000 1.000000
v 4.599966 1.000000 1.000000
v 4.599966 1.000000 -1.000000
v 4.599966 -1.000000 -1.000000
v 6.563401 -1.000000 1.000000
v 6.563401 1.000000 1.000000
v 6.563401 1.000000 -1.000000
v 6.563401 -1.000000 -1.000000
v 8.471752 -0.999999 1.000000
v 8.471752 1.000001 1.000000
v 8.471752 1.000001 -1.000000
v 8.471752 -0.999999 -1.000000
vn -0.0000 1.0000 -0.0000
vn -0.0000 -0.0000 1.0000
vn -0.0000 -1.0000 -0.0000
vn -0.0000 -0.0000 -1.0000
vn -1.0000 -0.0000 -0.0000
vn 1.0000 -0.0000 -0.0000
vt 0.625000 0.500000
vt 0.875000 0.500000
vt 0.875000 0.750000
vt 0.625000 0.750000
vt 0.625000 0.000000
vt 0.375000 0.000000
vt 0.625000 0.250000
vt 0.375000 0.250000
vt 0.125000 0.500000
vt 0.375000 0.500000
vt 0.375000 0.750000
vt 0.125000 0.750000
vt 0.625000 1.000000
vt 0.375000 1.000000
s 0
f 1/1/1 5/2/1 7/3/1 3/4/1
f 7/5/2 8/6/2 9/6/2 10/5/2
f 8/6/2 7/5/2 5/7/2 6/8/2
f 6/9/3 2/10/3 4/11/3 8/12/3
f 2/10/4 1/1/4 3/4/4 4/11/4
f 6/8/5 5/7/5 1/1/5 2/10/5
f 12/11/4 11/4/4 15/4/4 16/11/4
f 8/12/3 4/11/3 12/11/3 9/12/3
f 3/4/1 7/3/1 10/3/1 11/4/1
f 4/11/4 3/4/4 11/4/4 12/11/4
f 15/4/1 14/3/1 18/3/1 19/4/1
f 11/4/1 10/3/1 14/3/1 15/4/1
f 10/5/2 9/6/2 13/6/2 14/5/2
f 9/12/3 12/11/3 16/11/3 13/12/3
f 17/12/3 20/11/3 24/11/3 21/12/3
f 14/5/2 13/6/2 17/6/2 18/5/2
f 13/12/3 16/11/3 20/11/3 17/12/3
f 16/11/4 15/4/4 19/4/4 20/11/4
f 24/11/6 23/4/6 22/13/6 21/14/6
f 20/11/4 19/4/4 23/4/4 24/11/4
f 19/4/1 18/3/1 22/3/1 23/4/1
f 18/5/2 17/6/2 21/6/2 22/5/2
