# Blender 4.1.1
# www.blender.org
o star
v 0.000000 1.029579 -0.000000
v 0.247859 0.332778 -0.000000
v -0.247859 0.332778 -0.000000
v 0.000000 0.005980 0.193789
v 0.601656 -0.822129 -0.000000
v 0.000000 -0.430054 -0.000000
v 0.401044 -0.138678 -0.000000
v 0.973501 0.322289 -0.000000
v -0.973501 0.322289 -0.000000
v -0.401044 -0.138678 -0.000000
v -0.601657 -0.822129 -0.000000
v 0.000000 0.005980 -0.193788
vn 0.4634 0.1648 0.8707
vn -0.4634 0.1648 0.8707
vn -0.0000 0.1860 0.9825
vn -0.2559 -0.3926 0.8834
vn 0.4709 0.1382 0.8713
vn 0.2946 -0.3659 0.8828
vn 0.0073 0.5059 0.8625
vn -0.1769 0.0575 0.9825
vn -0.0073 0.5059 0.8625
vn -0.2946 -0.3659 0.8828
vn -0.4709 0.1382 0.8713
vn 0.2559 -0.3926 0.8834
vn -0.1093 -0.1505 0.9825
vn 0.4634 0.1648 -0.8707
vn -0.4634 0.1648 -0.8707
vn -0.0000 0.1860 -0.9825
vn -0.2558 -0.3926 -0.8834
vn 0.4709 0.1382 -0.8713
vn 0.2946 -0.3659 -0.8828
vn 0.0073 0.5059 -0.8625
vn -0.1769 0.0575 -0.9825
vn -0.0073 0.5059 -0.8625
vn -0.2946 -0.3659 -0.8828
vn -0.4709 0.1382 -0.8713
vn 0.2558 -0.3926 -0.8834
vn -0.1093 -0.1505 -0.9825
vt 0.000000 0.000000
vt 1.000000 1.000000
vt 1.000000 0.000000
vt 0.000000 1.000000
s 0
f 1/1/1 4/2/1 2/3/1
f 1/1/2 3/4/2 4/2/2
f 1/1/3 3/4/3 4/2/3 2/3/3
f 5/1/4 4/2/4 6/3/4
f 5/1/5 7/4/5 4/2/5
f 8/1/6 4/2/6 7/3/6
f 8/1/7 2/4/7 4/2/7
f 9/1/8 10/4/8 4/2/8 3/3/8
f 9/1/9 4/2/9 3/3/9
f 9/1/10 10/4/10 4/2/10
f 11/1/11 4/2/11 10/3/11
f 11/1/12 6/4/12 4/2/12
f 11/1/13 6/4/13 4/2/13 10/3/13
f 1/1/14 2/3/14 12/2/14
f 1/1/15 12/2/15 3/4/15
f 1/1/16 2/3/16 12/2/16 3/4/16
f 5/1/17 6/3/17 12/2/17
f 5/1/18 12/2/18 7/4/18
f 8/1/19 7/3/19 12/2/19
f 8/1/20 12/2/20 2/4/20
f 9/1/21 3/3/21 12/2/21 10/4/21
f 9/1/22 3/3/22 12/2/22
f 9/1/23 12/2/23 10/4/23
f 11/1/24 10/3/24 12/2/24
f 11/1/25 12/2/25 6/4/25
f 11/1/26 10/3/26 12/2/26 6/4/26
